<svg width="29" height="29" viewBox="0 0 29 29" fill="none" xmlns="http://www.w3.org/2000/svg">
<path d="M20.8847 11.5L14.5385 14.3846L8.19238 11.5" stroke="#2D2D2D" stroke-width="1.73077" stroke-linecap="round" stroke-linejoin="round"/>
<path d="M20.1114 10.003L15.496 7.89779C14.8877 7.62031 14.1889 7.62031 13.5806 7.89779L8.96522 10.003C8.14289 10.3781 7.61523 11.1988 7.61523 12.1026V17.8192C7.61523 18.7231 8.14289 19.5437 8.96522 19.9188L13.5806 22.0241C14.1889 22.3016 14.8877 22.3016 15.496 22.0241L20.1114 19.9188C20.9337 19.5437 21.4614 18.7231 21.4614 17.8192V12.1026C21.4614 11.1988 20.9337 10.3781 20.1114 10.003Z" stroke="#2D2D2D" stroke-width="1.73077" stroke-linecap="round" stroke-linejoin="round"/>
<path d="M14.5386 14.3838V21.3069" stroke="#2D2D2D" stroke-width="1.73077" stroke-linecap="round" stroke-linejoin="round"/>
<path d="M14.5386 2.8457V3.99955" stroke="#2D2D2D" stroke-width="1.73077" stroke-linecap="round" stroke-linejoin="round"/>
<path d="M14.5386 24.7686V25.9224" stroke="#2D2D2D" stroke-width="1.73077" stroke-linecap="round" stroke-linejoin="round"/>
<path d="M23.8516 5.07129L23.0357 5.88718" stroke="#2D2D2D" stroke-width="1.73077" stroke-linecap="round" stroke-linejoin="round"/>
<path d="M6.0415 22.8818L5.22561 23.6977" stroke="#2D2D2D" stroke-width="1.73077" stroke-linecap="round" stroke-linejoin="round"/>
<path d="M26.0771 14.3838L24.9233 14.3838" stroke="#2D2D2D" stroke-width="1.73077" stroke-linecap="round" stroke-linejoin="round"/>
<path d="M4.15381 14.3838L2.99996 14.3838" stroke="#2D2D2D" stroke-width="1.73077" stroke-linecap="round" stroke-linejoin="round"/>
<path d="M23.8516 23.6973L23.0357 22.8814" stroke="#2D2D2D" stroke-width="1.73077" stroke-linecap="round" stroke-linejoin="round"/>
<path d="M6.0415 5.88672L5.22561 5.07083" stroke="#2D2D2D" stroke-width="1.73077" stroke-linecap="round" stroke-linejoin="round"/>
</svg>
