<svg width="29" height="29" viewBox="0 0 29 29" fill="none" xmlns="http://www.w3.org/2000/svg">
<path d="M20.8847 11.3467L14.5385 14.2313L8.19238 11.3467" stroke="#2D2D2D" stroke-width="1.73077" stroke-linecap="round" stroke-linejoin="round"/>
<path d="M20.1114 9.84973L15.496 7.74446C14.8877 7.46698 14.1889 7.46699 13.5806 7.74447L8.96522 9.84973C8.14289 10.2248 7.61523 11.0455 7.61523 11.9493V17.6659C7.61523 18.5698 8.14289 19.3904 8.96522 19.7655L13.5806 21.8708C14.1889 22.1482 14.8877 22.1482 15.496 21.8708L20.1114 19.7655C20.9337 19.3904 21.4614 18.5698 21.4614 17.6659V11.9493C21.4614 11.0455 20.9337 10.2248 20.1114 9.84973Z" stroke="#2D2D2D" stroke-width="1.73077" stroke-linecap="round" stroke-linejoin="round"/>
<path d="M14.5386 14.2305V21.1535" stroke="#2D2D2D" stroke-width="1.73077" stroke-linecap="round" stroke-linejoin="round"/>
<path d="M14.5386 2.69238V3.84623" stroke="#2D2D2D" stroke-width="1.73077" stroke-linecap="round" stroke-linejoin="round"/>
<path d="M14.5386 24.6152V25.7691" stroke="#2D2D2D" stroke-width="1.73077" stroke-linecap="round" stroke-linejoin="round"/>
<path d="M23.8511 4.91797L23.0352 5.73386" stroke="#2D2D2D" stroke-width="1.73077" stroke-linecap="round" stroke-linejoin="round"/>
<path d="M6.0415 22.7285L5.22561 23.5444" stroke="#2D2D2D" stroke-width="1.73077" stroke-linecap="round" stroke-linejoin="round"/>
<path d="M26.0771 14.2305L24.9233 14.2305" stroke="#2D2D2D" stroke-width="1.73077" stroke-linecap="round" stroke-linejoin="round"/>
<path d="M4.15381 14.2305L2.99996 14.2305" stroke="#2D2D2D" stroke-width="1.73077" stroke-linecap="round" stroke-linejoin="round"/>
<path d="M23.8511 23.5439L23.0352 22.7281" stroke="#2D2D2D" stroke-width="1.73077" stroke-linecap="round" stroke-linejoin="round"/>
<path d="M6.0415 5.7334L5.22561 4.91751" stroke="#2D2D2D" stroke-width="1.73077" stroke-linecap="round" stroke-linejoin="round"/>
</svg>
