<svg width="21" height="25" viewBox="0 0 21 25" fill="none" xmlns="http://www.w3.org/2000/svg">
<path fill-rule="evenodd" clip-rule="evenodd" d="M6.79356 9.76886L7.61856 6.01887H12.9195L13.7445 9.76886H6.79356ZM5.0214 9.76886H3.05744V16.6919C3.05744 17.4885 3.70318 18.1342 4.49975 18.1342H5.07667C5.55461 18.1342 5.94205 18.5217 5.94205 18.9996C5.94205 19.4776 5.55461 19.865 5.07667 19.865H4.49975C2.7473 19.865 1.32667 18.4444 1.32667 16.6919V9.47215C0.314056 8.89724 -0.178095 7.58615 0.400415 6.42913L0.605546 6.01887H5.8464L5.0214 9.76886ZM1.47093 4.2881H6.22717L7.05217 0.538086H4.77217C3.89808 0.538086 3.09901 1.03194 2.70811 1.81375L1.47093 4.2881ZM8.82433 0.538086L7.99933 4.2881H12.5387L11.7137 0.538086H8.82433ZM13.4859 0.538086L14.3109 4.2881H19.0671L17.8299 1.81375C17.439 1.03194 16.6399 0.538086 15.7659 0.538086H13.4859ZM19.9325 6.01887H14.6916L15.5166 9.76886H17.4805V16.6919C17.4805 17.4885 16.8348 18.1342 16.0382 18.1342H15.4613C14.9833 18.1342 14.5959 18.5217 14.5959 18.9996C14.5959 19.4776 14.9833 19.865 15.4613 19.865H16.0382C17.7906 19.865 19.2113 18.4444 19.2113 16.6919V9.47219C20.224 8.8973 20.7161 7.58618 20.1376 6.42913L19.9325 6.01887ZM12.1154 14.9036C12.4022 14.5212 12.3247 13.9788 11.9423 13.6921C11.56 13.4053 11.0175 13.4828 10.7308 13.8651L7.26924 18.4805C7.07257 18.7427 7.04093 19.0936 7.18752 19.3868C7.33411 19.6799 7.63376 19.8651 7.96154 19.8651H10.8462L8.42308 23.0959C8.13632 23.4783 8.21381 24.0207 8.59616 24.3074C8.97851 24.5942 9.52093 24.5167 9.8077 24.1344L13.2692 19.519C13.4659 19.2568 13.4975 18.9059 13.351 18.6127C13.2044 18.3196 12.9047 18.1344 12.5769 18.1344H9.69231L12.1154 14.9036Z" fill="#2D2D2D"/>
</svg>
