<svg width="25" height="17" viewBox="0 0 25 17" fill="none" xmlns="http://www.w3.org/2000/svg">
<path d="M10.2308 1.61523H17.1538M10.2308 10.846H17.1538M10.2308 6.23062H24.0769M10.2308 15.4614H24.0769M3.30769 6.23062C2.03319 6.23062 1 5.19743 1 3.92293C1 2.64842 2.03319 1.61523 3.30769 1.61523C4.5822 1.61523 5.61538 2.64842 5.61538 3.92293C5.61538 5.19743 4.5822 6.23062 3.30769 6.23062ZM3.30769 15.4614C2.03319 15.4614 1 14.4282 1 13.1537C1 11.8792 2.03319 10.846 3.30769 10.846C4.5822 10.846 5.61538 11.8792 5.61538 13.1537C5.61538 14.4282 4.5822 15.4614 3.30769 15.4614Z" stroke="#2D2D2D" stroke-width="1.73077" stroke-linecap="round"/>
</svg>
