<svg width="23" height="26" viewBox="0 0 23 26" fill="none" xmlns="http://www.w3.org/2000/svg">
<path d="M6.92304 7.26825H11.5384M6.92304 11.8836H16.1538M6.92304 16.499H16.1538M3.4615 1.49902H19.6153C20.8899 1.49902 21.923 2.53221 21.923 3.80672V21.2925C21.923 22.8908 20.3375 24.0052 18.8337 23.4638L17.0316 22.815C16.4686 22.6123 15.8487 22.6363 15.303 22.8819L12.4854 24.1498C11.8832 24.4208 11.1937 24.4208 10.5914 24.1498L7.77386 22.8819C7.2281 22.6363 6.60829 22.6123 6.0452 22.815L4.24316 23.4638C2.73933 24.0052 1.15381 22.8908 1.15381 21.2925V3.80672C1.15381 2.53221 2.187 1.49902 3.4615 1.49902Z" stroke="#2D2D2D" stroke-width="1.73077" stroke-linecap="round"/>
</svg>
