<svg width="29" height="28" viewBox="0 0 29 28" fill="none" xmlns="http://www.w3.org/2000/svg">
<path d="M3 6.96094H21.4615C24.0105 6.96094 26.0769 9.02732 26.0769 11.5763V20.8071C26.0769 23.3561 24.0105 25.4225 21.4615 25.4225H7.61538C5.06638 25.4225 3 23.3561 3 20.8071V6.96094Z" stroke="#2D2D2D" stroke-width="1.73077" stroke-linejoin="round"/>
<path d="M3 6.96109C3 4.41208 5.06638 2.3457 7.61538 2.3457H14.5385C17.0875 2.3457 19.1538 4.41208 19.1538 6.96109H3Z" stroke="#2D2D2D" stroke-width="1.73077" stroke-linejoin="round"/>
<path d="M26.0769 13.8838L26.0769 18.4992H21.4615C20.187 18.4992 19.1538 17.466 19.1538 16.1915C19.1538 14.917 20.187 13.8838 21.4615 13.8838L26.0769 13.8838Z" stroke="#2D2D2D" stroke-width="1.73077" stroke-linejoin="round"/>
</svg>
