<svg width="23" height="25" viewBox="0 0 23 25" fill="none" xmlns="http://www.w3.org/2000/svg">
<path d="M6.92304 6.65302H11.5384M6.92304 11.2684H16.1538M6.92304 15.8838H16.1538M3.4615 0.883789H19.6153C20.8899 0.883789 21.923 1.91698 21.923 3.19148V20.6773C21.923 22.2756 20.3375 23.3899 18.8337 22.8485L17.0316 22.1998C16.4686 21.9971 15.8487 22.0211 15.303 22.2667L12.4854 23.5346C11.8832 23.8056 11.1937 23.8056 10.5914 23.5346L7.77386 22.2667C7.2281 22.0211 6.60829 21.9971 6.0452 22.1998L4.24316 22.8485C2.73933 23.3899 1.15381 22.2756 1.15381 20.6773V3.19148C1.15381 1.91698 2.187 0.883789 3.4615 0.883789Z" stroke="#2D2D2D" stroke-width="1.73077" stroke-linecap="round"/>
</svg>
